<svg width="34" height="40" viewBox="0 0 34 40" fill="none" xmlns="http://www.w3.org/2000/svg">
<path d="M24.0462 12.4806C26.7478 14.418 30.056 15.558 33.6293 15.558V10.1259C31.6347 9.6995 29.869 8.65346 28.5414 7.19849C26.2689 5.77538 24.6316 3.4276 24.1516 0.679688H19.142V28.2433C19.1307 31.4567 16.5322 34.0586 13.3277 34.0586C11.4394 34.0586 9.76178 33.1552 8.69932 31.7559C6.80208 30.7949 5.50103 28.8221 5.50103 26.5437C5.50103 23.3215 8.10385 20.7089 11.3152 20.7089C11.9305 20.7089 12.5235 20.805 13.0798 20.9822V15.4907C6.1835 15.6337 0.637207 21.2886 0.637207 28.2435C0.637207 31.7153 2.01836 34.8626 4.25999 37.1622C6.28227 38.5249 8.71669 39.3197 11.3359 39.3197C18.3556 39.3197 24.0463 33.6087 24.0463 26.5638V12.4806H24.0462Z" fill="#1E1E1E"/>
</svg>
